<svg width="1207" height="1207" viewBox="0 0 1207 1207" fill="none" xmlns="http://www.w3.org/2000/svg">
<g clip-path="url(#clip0_11_20)">
<rect width="1207" height="1207" rx="123" fill="#8888B6"/>
<rect x="474.951" y="817.291" width="253.105" height="166.516" fill="#F9D8B7"/>
<path d="M894.41 644.759C894.41 791.331 850.785 847.961 594.086 847.961C341.226 861.841 294.003 780.227 294.003 630.324C294.003 510.126 294.003 294.43 582.288 294.43C911.95 294.43 894.41 524.561 894.41 644.759Z" fill="#FFD2A5"/>
<path d="M816.864 911.427C816.864 904.832 825.151 901.896 829.303 907.02L962.954 1071.96C1009.57 1129.48 1035 1201.27 1035 1275.31V1426.19C1035 1458.07 1009.16 1483.91 977.275 1483.91V1483.91C945.394 1483.91 919.549 1458.07 919.549 1426.19V1261.35C919.549 1244.57 915.451 1228.05 907.611 1213.22L828.802 1064.12C820.962 1049.29 816.864 1032.76 816.864 1015.99V911.427Z" fill="url(#paint0_linear_11_20)"/>
<path d="M386.141 917.027C386.141 910.426 377.842 907.494 373.695 912.629L244.719 1072.32C198.312 1129.78 173 1201.41 173 1275.27V1421.4C173 1452.55 198.252 1477.81 229.403 1477.81V1477.81C260.554 1477.81 285.807 1452.55 285.807 1421.4V1260.05C285.807 1243.32 289.882 1226.84 297.68 1212.04L374.268 1066.67C382.066 1051.87 386.141 1035.39 386.141 1018.66V917.027Z" fill="url(#paint1_linear_11_20)"/>
<path d="M559.319 631.35C559.319 647.597 540.433 660.767 517.135 660.767C493.838 660.767 474.951 647.597 474.951 631.35C474.951 615.102 493.838 601.932 517.135 601.932C540.433 601.932 559.319 615.102 559.319 631.35Z" fill="#050505"/>
<path d="M741.377 631.35C741.377 647.597 722.491 660.767 699.193 660.767C675.895 660.767 657.009 647.597 657.009 631.35C657.009 615.102 675.895 601.932 699.193 601.932C722.491 601.932 741.377 615.102 741.377 631.35Z" fill="black"/>
<path d="M580.668 486.35C574.319 472.13 558.422 450.987 537.854 464.792C512.349 481.912 513.997 536.878 526.703 553.623C534.513 541.699 543.242 567.666 529.337 556.399C528.414 555.652 527.535 554.719 526.703 553.623C526.084 554.568 525.471 555.751 524.875 557.21C518.424 573.005 484.716 622.689 468.379 645.972C468.184 646.25 467.935 646.46 467.63 646.609C448.477 655.998 422.687 674.018 405.627 672.732C384.13 671.11 382.913 657.734 371.556 659.355C360.199 660.977 341.541 685.703 333.023 679.217C326.29 674.091 330.091 751.643 332.921 792.465C332.982 793.348 332.367 794.056 331.626 793.571C328.359 791.435 321.151 780.354 309.903 746.909C296.6 707.348 301.386 695.836 305.442 695.025L271.588 701.247C270.733 701.404 269.875 700.992 269.464 700.226L261.23 684.892C255.687 674.083 244.276 649.708 242.978 638.683C241.855 629.144 242.271 614.265 242.753 605.439C242.839 603.861 241.095 602.673 239.567 603.076C235.369 604.183 228.589 604.675 220.67 601.797C211.958 598.631 201.76 590.778 195.494 585.269C194.146 584.083 195 581.936 196.795 581.936H228.782C236.083 580.99 251.74 577.72 255.958 572.207C260.013 566.908 249.898 560.434 243.705 557.541C243.239 557.323 242.869 556.945 242.673 556.469L234.602 536.88C234.509 536.654 234.374 536.446 234.206 536.268L221.217 522.523C220.866 522.152 220.67 521.661 220.67 521.15V496.315C220.67 495.413 221.274 494.623 222.144 494.386L242.978 488.707C249.062 486.275 261.23 477.439 261.23 461.55V434.692C261.23 432.504 264.238 431.905 265.077 433.925L268.01 440.986C268.731 442.721 271.228 442.596 271.772 440.798L280.638 411.492C280.679 411.356 280.706 411.216 280.717 411.074L285.923 346.64C285.955 346.241 286.108 345.851 286.376 345.554C297.155 333.58 327.375 353.835 348.842 331.422C376.018 303.048 416.578 239.41 448.621 231.708C480.664 224.007 544.749 219.143 560.162 239.005C572.065 254.343 611.51 270.592 620.19 274.617C620.715 274.86 621.309 274.874 621.842 274.649L683.833 248.517C684.079 248.413 684.343 248.36 684.61 248.36H791.743C792.195 248.36 792.634 248.513 792.988 248.794L854.425 297.615C854.546 297.711 854.656 297.821 854.752 297.943L897.826 352.656C897.963 352.83 898.07 353.025 898.143 353.234L915.502 402.914C915.736 403.582 916.305 404.076 916.999 404.215L950.776 410.966C951.711 411.153 952.384 411.974 952.384 412.927V432.039C952.384 432.511 952.217 432.968 951.912 433.329L935.922 452.282C935.343 452.968 935.288 453.95 935.792 454.692C942.688 464.839 955.573 484.043 958.062 488.707C960.29 492.881 959.491 504.319 958.536 511.749C958.343 513.249 959.792 514.455 961.221 513.959L992.839 502.997C994.577 502.395 996.138 504.26 995.239 505.864L958.349 571.696C958.162 572.03 957.883 572.303 957.545 572.483L941.75 580.901C940.71 581.456 940.372 582.786 941.023 583.77L955.204 605.209C955.477 605.622 955.587 606.122 955.513 606.612L947.774 657.655C947.626 658.633 946.786 659.355 945.797 659.355H916.725C916.184 659.355 915.666 659.575 915.29 659.963L903.318 672.301C903.045 672.582 902.861 672.937 902.788 673.322L886.704 758.332C886.29 760.521 883.146 760.496 882.768 758.3L868.26 674.137C868.115 673.296 867.452 672.64 866.61 672.503L806.64 662.761C792.825 660.516 779.649 655.351 767.989 647.609L759.056 641.677C737.178 627.149 724.027 602.63 724.027 576.368V538.895C724.027 509.536 703.719 484.081 675.093 477.561C670.952 476.617 666.935 475.15 662.782 474.254C648.623 471.199 624.904 472.494 621.003 472.494C616.693 472.494 597.191 478.454 583.773 487.259C582.685 487.974 581.199 487.539 580.668 486.35Z" fill="#343334"/>
<path d="M453.749 882.242C465.11 880.472 476.683 883.676 485.515 891.036L566.711 958.702C580.929 970.55 601.418 971.098 616.248 960.026L713.526 887.404C720.437 882.245 728.83 879.457 737.455 879.457H788.487C811.646 879.457 829.965 899.062 828.395 922.167L820.75 1034.74L809.294 1199.93C809.161 1201.85 809.166 1203.78 809.31 1205.7L828.455 1460.45C830.048 1481.65 814.777 1500.39 793.692 1503.12L628.701 1524.43H560.429L394.828 1503.1C373.765 1500.38 358.494 1481.68 360.046 1460.5L378.67 1206.32C378.841 1203.99 378.807 1201.65 378.569 1199.32L363.385 1051.02V930.573C363.385 910.859 377.748 894.085 397.226 891.05L453.749 882.242Z" fill="#FDFF9D"/>
</g>
<defs>
<linearGradient id="paint0_linear_11_20" x1="1184.31" y1="1951.27" x2="789.112" y2="937.739" gradientUnits="userSpaceOnUse">
<stop offset="0.822079" stop-color="#FAD7B7"/>
<stop offset="0.822179" stop-color="#FBFF50"/>
</linearGradient>
<linearGradient id="paint1_linear_11_20" x1="27.1091" y1="1935.96" x2="415.468" y2="943.246" gradientUnits="userSpaceOnUse">
<stop offset="0.822079" stop-color="#FAD7B7"/>
<stop offset="0.822179" stop-color="#FBFF50"/>
</linearGradient>
<clipPath id="clip0_11_20">
<rect width="1207" height="1207" rx="123" fill="white"/>
</clipPath>
</defs>
</svg>
